<?xml version="1.0" standalone="no"?>
<!DOCTYPE svg PUBLIC "-//W3C//DTD SVG 20010904//EN"
 "http://www.w3.org/TR/2001/REC-SVG-20010904/DTD/svg10.dtd">
<svg version="1.0" xmlns="http://www.w3.org/2000/svg"
 width="700.000000pt" height="700.000000pt" viewBox="0 0 700.000000 700.000000"
 preserveAspectRatio="xMidYMid meet">
<metadata>
Created by potrace 1.14, written by Peter Selinger 2001-2017
</metadata>
<g transform="translate(0.000000,700.000000) scale(0.100000,-0.100000)"
fill="#000000" stroke="none">
<path d="M0 3500 l0 -3500 3500 0 3500 0 0 3500 0 3500 -3500 0 -3500 0 0
-3500z m3358 3044 c119 -17 297 -66 432 -118 74 -29 107 -49 178 -110 136
-115 265 -262 347 -394 l36 -60 77 75 c266 259 577 433 934 522 141 35 275 52
469 58 l187 6 28 -44 c15 -24 41 -73 58 -109 28 -58 31 -75 31 -155 0 -82 -3
-96 -34 -159 -21 -44 -55 -89 -93 -126 -55 -54 -65 -59 -116 -65 -110 -13
-258 -46 -373 -85 -390 -130 -676 -375 -882 -760 -53 -99 -51 -86 -72 -490
-49 -950 -85 -2161 -85 -2897 l0 -262 -51 -121 c-88 -209 -206 -387 -348 -528
-177 -175 -395 -286 -666 -338 -124 -24 -400 -24 -550 0 -90 14 -124 25 -185
58 -355 193 -592 463 -735 839 -33 86 -34 91 -46 345 -17 338 -17 1341 0 1694
l13 275 35 47 c134 184 332 220 476 88 30 -28 68 -72 85 -98 l29 -47 38 -740
c20 -407 44 -900 54 -1095 l17 -356 53 -77 c104 -150 235 -251 363 -278 131
-29 332 23 493 125 65 42 106 83 140 141 21 37 24 60 39 340 49 905 60 1346
60 2305 0 487 -6 1007 -12 1189 -12 317 -13 325 -38 370 -66 120 -183 234
-299 291 -89 44 -167 61 -301 67 l-122 6 -83 -44 c-112 -59 -233 -177 -277
-269 -33 -69 -69 -197 -59 -207 4 -3 51 -10 105 -14 156 -13 254 -35 274 -61
29 -39 75 -142 88 -197 18 -76 8 -200 -23 -284 -14 -38 -27 -71 -30 -74 -3 -3
-66 -25 -139 -49 -194 -65 -309 -87 -458 -87 -110 0 -135 3 -205 27 -193 65
-299 196 -342 421 -20 103 -13 296 17 455 19 99 31 135 90 255 226 464 544
731 950 800 106 18 304 18 428 -1z"/>
</g>
</svg>
